<?xml version="1.0" encoding="utf-8"?>
<!-- Generator: Adobe Illustrator 19.0.0, SVG Export Plug-In . SVG Version: 6.00 Build 0)  -->
<svg version="1.1" xmlns="http://www.w3.org/2000/svg" xmlns:xlink="http://www.w3.org/1999/xlink" x="0px" y="0px"
	 viewBox="0 0 1680 1050" style="enable-background:new 0 0 1680 1050;" xml:space="preserve">
<style type="text/css">
	.st0{display:none;}
	.st1{display:inline;fill:#2B3B44;}
	.st2{fill:#5D747F;}
	.st3{opacity:0.4;}
	.st4{fill:#6A8CA0;}
</style>
<g id="Layer_1" class="st0">
	<rect id="XMLID_1_" class="st1" width="1680" height="1050"/>
</g>
<g id="Layer_2">
	<g id="XMLID_178_">
		<g id="XMLID_308_">
			<g id="XMLID_399_">
				<polygon id="XMLID_400_" class="st2" points="3,100.5 122.5,27.2 123.2,28.3 3.7,101.7 				"/>
			</g>
			<g id="XMLID_397_">
				<path id="XMLID_676_" class="st2" d="M5.6-37.8c-0.7,0.1-1.4,0.2-2,0.4l119,65.8l0.6-1.2L5.6-37.8z"/>
			</g>
			<g id="XMLID_395_">
				
					<rect id="XMLID_396_" x="245.9" y="-134.2" transform="matrix(-0.8959 0.4442 -0.4442 -0.8959 674.6154 -425.1961)" class="st2" width="282.4" height="1.3"/>
			</g>
			<g id="XMLID_393_">
				
					<rect id="XMLID_394_" x="344.9" y="-62" transform="matrix(-0.2201 0.9755 -0.9755 -0.2201 529.6815 -546.2519)" class="st2" width="276.6" height="1.3"/>
			</g>
			<g id="XMLID_391_">
				
					<rect id="XMLID_392_" x="356" y="-118.8" transform="matrix(-0.6005 0.7996 -0.7996 -0.6005 571.9393 -283.057)" class="st2" width="1.3" height="240.3"/>
			</g>
			<g id="XMLID_389_">
				
					<rect id="XMLID_390_" x="439" y="10.5" transform="matrix(-0.9078 0.4193 -0.4193 -0.9078 1126.1156 -225.2522)" class="st2" width="297.5" height="1.3"/>
			</g>
			<g id="XMLID_387_">
				
					<rect id="XMLID_388_" x="602" y="7" transform="matrix(-0.616 0.7877 -0.7877 -0.616 1099.7596 -520.7858)" class="st2" width="149.5" height="1.3"/>
			</g>
			<g id="XMLID_385_">
				
					<rect id="XMLID_386_" x="452.7" y="69.4" transform="matrix(-0.9992 3.917096e-002 -3.917096e-002 -0.9992 1085.8402 118.7899)" class="st2" width="178.1" height="1.3"/>
			</g>
			<g id="XMLID_383_">
				
					<rect id="XMLID_384_" x="725.5" y="6.5" transform="matrix(-0.4318 0.902 -0.902 -0.4318 1141.022 -494.1952)" class="st2" width="1.3" height="211.7"/>
			</g>
			<g id="XMLID_381_">
				
					<rect id="XMLID_382_" x="817.3" y="-102.3" transform="matrix(-0.5529 0.8333 -0.8333 -0.5529 1279.9753 -663.2036)" class="st2" width="1.3" height="228.1"/>
			</g>
			<g id="XMLID_379_">
				
					<rect id="XMLID_380_" x="805.5" y="115.8" transform="matrix(-0.7395 0.6732 -0.6732 -0.7395 1587.0217 -381.2632)" class="st2" width="123.6" height="1.3"/>
			</g>
			<g id="XMLID_377_">
				<polygon id="XMLID_378_" class="st2" points="722.4,-51.7 842.8,-170 843.9,-169.1 723.4,-50.8 				"/>
			</g>
			<g id="XMLID_375_">
				<polygon id="XMLID_376_" class="st2" points="842.9,-169.1 843.8,-170 929.3,-118.1 928.4,-117.1 				"/>
			</g>
			<g id="XMLID_373_">
				
					<rect id="XMLID_374_" x="717.7" y="-85.1" transform="matrix(-0.9518 0.3066 -0.3066 -0.9518 1586.0472 -418.03)" class="st2" width="216.4" height="1.3"/>
			</g>
			<g id="XMLID_371_">
				
					<rect id="XMLID_372_" x="180.7" y="-11.8" transform="matrix(-0.3729 0.9279 -0.9279 -0.3729 296.6446 -97.857)" class="st2" width="1.3" height="126.2"/>
			</g>
			<g id="XMLID_369_">
				
					<rect id="XMLID_370_" x="60.2" y="-78.4" transform="matrix(-0.9976 -6.918956e-002 6.918956e-002 -0.9976 326.0611 -144.2322)" class="st2" width="200.6" height="1.3"/>
			</g>
			<g id="XMLID_367_">
				
					<rect id="XMLID_368_" x="241.6" y="-170.2" transform="matrix(-0.9808 0.1948 -0.1948 -0.9808 717.5594 -409.6472)" class="st2" width="274.7" height="1.3"/>
			</g>
			<g id="XMLID_365_">
				
					<rect id="XMLID_366_" x="119.4" y="-112.1" transform="matrix(-0.8812 0.4728 -0.4728 -0.8812 296.7429 -297.4327)" class="st2" width="132.7" height="1.3"/>
			</g>
			<g id="XMLID_363_">
				
					<rect id="XMLID_364_" x="124.4" y="-80.1" transform="matrix(-0.9992 -4.054373e-002 4.054373e-002 -0.9992 251.169 -47.2271)" class="st2" width="1.3" height="107.9"/>
			</g>
			<g id="XMLID_361_">
				
					<rect id="XMLID_362_" x="78.9" y="-58.2" transform="matrix(-0.5796 0.8149 -0.8149 -0.5796 243.0641 -240.4426)" class="st2" width="209.3" height="1.3"/>
			</g>
			<g id="XMLID_359_">
				
					<rect id="XMLID_360_" x="209.4" y="-31.5" transform="matrix(-0.8461 0.533 -0.533 -0.8461 736.3588 -274.368)" class="st2" width="396.8" height="1.3"/>
			</g>
			<g id="XMLID_357_">
				
					<rect id="XMLID_358_" x="316.4" y="28.1" transform="matrix(-0.463 0.8864 -0.8864 -0.463 565.7719 -112.6714)" class="st2" width="1.3" height="173.9"/>
			</g>
			<g id="XMLID_355_">
				
					<rect id="XMLID_356_" x="392.5" y="-32.2" transform="matrix(-0.5048 0.8632 -0.8632 -0.5048 746.5252 -491.36)" class="st2" width="243.4" height="1.3"/>
			</g>
			<g id="XMLID_353_">
				
					<rect id="XMLID_354_" x="719.7" y="-253.9" transform="matrix(-0.2075 0.9782 -0.9782 -0.2075 766.3093 -832.5573)" class="st2" width="1.3" height="295.9"/>
			</g>
			<g id="XMLID_351_">
				
					<rect id="XMLID_352_" x="108.5" y="-55.1" transform="matrix(-0.94 0.3413 -0.3413 -0.94 659.0112 -224.809)" class="st2" width="481.6" height="1.3"/>
			</g>
			<g id="XMLID_349_">
				
					<rect id="XMLID_350_" x="724.7" y="40.8" transform="matrix(-0.1834 0.983 -0.983 -0.1834 1038.8091 -779.9838)" class="st2" width="237.2" height="1.3"/>
			</g>
			<g id="XMLID_347_">
				
					<rect id="XMLID_348_" x="611" y="-5" transform="matrix(-0.8558 0.5174 -0.5174 -0.8558 1385.7528 -394.9564)" class="st2" width="273.9" height="1.3"/>
			</g>
			<g id="XMLID_345_">
				
					<rect id="XMLID_346_" x="698" y="-181.2" transform="matrix(-0.7675 0.641 -0.641 -0.7675 1241.6884 -428.8932)" class="st2" width="1.3" height="383.8"/>
			</g>
			<g id="XMLID_343_">
				
					<rect id="XMLID_344_" x="727.3" y="19.6" transform="matrix(-0.3626 0.9319 -0.9319 -0.3626 1211.4313 -788.0999)" class="st2" width="295.8" height="1.3"/>
			</g>
			<g id="XMLID_341_">
				<path id="XMLID_675_" class="st2" d="M19.4-50.1l41.5-34.1l-0.8-1L16.9-49.7C17.7-49.8,18.6-49.9,19.4-50.1z"/>
			</g>
			<g id="XMLID_339_">
				<path id="XMLID_673_" class="st2" d="M3.2-37.4L2.8,100.8l1.2,0.6l0.4-139C4-37.5,3.6-37.5,3.2-37.4z"/>
			</g>
			<g id="XMLID_337_">
				
					<rect id="XMLID_338_" x="43" y="-112.3" transform="matrix(-0.4608 0.8875 -0.8875 -0.4608 -19.055 -175.241)" class="st2" width="1.3" height="37.8"/>
			</g>
			<g id="XMLID_335_">
				
					<rect id="XMLID_336_" x="249.6" y="-71.6" transform="matrix(-0.9901 -0.1401 0.1401 -0.9901 497.7804 39.061)" class="st2" width="1.3" height="147.1"/>
			</g>
			<g id="XMLID_333_">
				
					<rect id="XMLID_334_" x="260" y="-140.3" transform="matrix(-0.661 0.7504 -0.7504 -0.661 461.2379 -133.1794)" class="st2" width="1.3" height="355.8"/>
			</g>
			<g id="XMLID_331_">
				
					<rect id="XMLID_332_" x="373.1" y="113.7" transform="matrix(-0.583 0.8125 -0.8125 -0.583 763.2329 -162.9513)" class="st2" width="100.6" height="1.3"/>
			</g>
			<g id="XMLID_329_">
				
					<rect id="XMLID_330_" x="386.1" y="110.2" transform="matrix(-0.9364 0.351 -0.351 -0.9364 1031.1798 34.8648)" class="st2" width="252.7" height="1.3"/>
			</g>
			<g id="XMLID_327_">
				
					<rect id="XMLID_328_" x="920.3" y="-117.9" transform="matrix(-0.9966 -8.199158e-002 8.199158e-002 -0.9966 1840.4857 32.8425)" class="st2" width="1.3" height="193.1"/>
			</g>
			<g id="XMLID_325_">
				
					<rect id="XMLID_326_" x="1001.3" y="-152.7" transform="matrix(-0.6249 0.7807 -0.7807 -0.6249 1581.9957 -878.1893)" class="st2" width="1.3" height="187.3"/>
			</g>
			<g id="XMLID_323_">
				
					<rect id="XMLID_324_" x="904.6" y="36.5" transform="matrix(-0.9067 0.4218 -0.4218 -0.9067 1910.9594 -348.4108)" class="st2" width="178.8" height="1.3"/>
			</g>
			<g id="XMLID_321_">
				<polygon id="XMLID_322_" class="st2" points="912.6,75.4 913.4,74.3 1038.4,166.7 1037.6,167.7 				"/>
			</g>
			<g id="XMLID_319_">
				<polygon id="XMLID_320_" class="st2" points="1074.4,-0.5 1075.7,-0.5 1038.7,167.2 1037.4,167.2 				"/>
			</g>
			<g id="XMLID_317_">
				<polygon id="XMLID_318_" class="st2" points="821.7,157.4 1038.1,166.5 1037.9,167.8 821.5,158.7 				"/>
			</g>
			<g id="XMLID_315_">
				<polygon id="XMLID_316_" class="st2" points="842.7,-169.4 844,-169.6 865.8,-75.2 864.5,-75.1 				"/>
			</g>
			<g id="XMLID_313_">
				
					<rect id="XMLID_314_" x="-7.8" y="127.9" transform="matrix(-0.2541 0.9672 -0.9672 -0.2541 245.2189 68.0255)" class="st2" width="208.4" height="1.3"/>
			</g>
			<g id="XMLID_311_">
				<polygon id="XMLID_312_" class="st2" points="3.2,101.7 3.6,100.5 70.1,228.7 69.7,230 				"/>
			</g>
			<g id="XMLID_309_">
				
					<rect id="XMLID_310_" x="40" y="151.4" transform="matrix(-0.7401 0.6725 -0.6725 -0.7401 371.8536 160.4829)" class="st2" width="229.7" height="1.3"/>
			</g>
		</g>
		<g id="XMLID_301_">
			<g id="XMLID_306_">
				<circle id="XMLID_307_" class="st2" cx="575.6" cy="-136.6" r="11"/>
			</g>
			<g id="XMLID_302_">
				<path id="XMLID_303_" class="st2" d="M585.1-123.1c7.5-5.2,9.3-15.5,4-23c-5.2-7.5-15.5-9.3-23-4c-7.5,5.2-9.3,15.5-4,23
					C567.4-119.7,577.7-117.9,585.1-123.1z M568.2-147.2c5.8-4.1,13.9-2.7,18,3.2c4.1,5.8,2.7,13.9-3.2,18c-5.8,4.1-13.9,2.7-18-3.2
					C561-135.1,562.4-143.1,568.2-147.2z"/>
			</g>
		</g>
		<g id="XMLID_294_">
			<g id="XMLID_299_">
				<path id="XMLID_300_" class="st2" d="M834.4-163.2c3.5,5,10.3,6.2,15.3,2.7c5-3.5,6.2-10.3,2.7-15.3c-3.5-5-10.3-6.2-15.3-2.7
					C832.1-175,830.9-168.2,834.4-163.2z"/>
			</g>
			<g id="XMLID_295_">
				<path id="XMLID_296_" class="st2" d="M852.8-156c7.5-5.2,9.3-15.5,4-23c-5.2-7.5-15.5-9.3-23-4c-7.5,5.2-9.3,15.5-4,23
					C835.1-152.6,845.4-150.8,852.8-156z M836-180.1c5.8-4.1,13.9-2.7,18,3.2c4.1,5.8,2.7,13.9-3.2,18c-5.8,4.1-13.9,2.7-18-3.2
					C828.7-168,830.1-176,836-180.1z"/>
			</g>
		</g>
		<g id="XMLID_287_">
			<g id="XMLID_292_">
				<circle id="XMLID_293_" class="st2" cx="394.1" cy="155.3" r="8.4"/>
			</g>
			<g id="XMLID_288_">
				<path id="XMLID_289_" class="st2" d="M401.4,165.6c5.7-4,7.1-11.9,3.1-17.6c-4-5.7-11.9-7.1-17.6-3.1c-5.7,4-7.1,11.9-3.1,17.6
					C387.8,168.3,395.7,169.7,401.4,165.6z M388.4,147.2c4.5-3.1,10.6-2.1,13.8,2.4c3.1,4.5,2.1,10.6-2.4,13.8
					c-4.5,3.1-10.6,2.1-13.8-2.4C382.9,156.5,383.9,150.3,388.4,147.2z"/>
			</g>
		</g>
		<g id="XMLID_280_">
			<g id="XMLID_285_">
				<circle id="XMLID_286_" class="st2" cx="261.6" cy="-69.5" r="8.4"/>
			</g>
			<g id="XMLID_281_">
				<path id="XMLID_282_" class="st2" d="M268.8-59.1c5.7-4,7.1-11.9,3.1-17.6c-4-5.7-11.9-7.1-17.7-3.1c-5.7,4-7.1,11.9-3.1,17.6
					C255.2-56.5,263.1-55.1,268.8-59.1z M255.9-77.6c4.5-3.1,10.6-2.1,13.8,2.4s2.1,10.6-2.4,13.8c-4.5,3.1-10.7,2.1-13.8-2.4
					C250.3-68.3,251.4-74.4,255.9-77.6z"/>
			</g>
		</g>
		<g id="XMLID_273_">
			<g id="XMLID_278_">
				<path id="XMLID_672_" class="st2" d="M1.5-37.1c-2.8,0.6-4.9-1.1-5.8-3.2c-0.6,2.3-0.2,4.9,1.2,7c2.7,3.8,7.9,4.7,11.7,2.1
					c2.6-1.8,3.8-4.8,3.5-7.8C8.6-38.4,5-37.8,1.5-37.1z"/>
			</g>
			<g id="XMLID_274_">
				<path id="XMLID_678_" class="st2" d="M13.6-39.2c0.4,3.5-1.1,7.1-4.2,9.2C5-26.8-1.2-27.9-4.3-32.4c-2.3-3.3-2.3-7.4-0.5-10.6
					c0.2-1.7,1.3-3.3,3.6-3.7c0.1,0,0.2,0,0.2,0c1.9-1.1,4.1-1.4,6.1-1.1c1.8-0.3,3.6-0.6,5.4-0.9c-4.2-2.7-9.8-2.7-14.1,0.3
					c-5.7,4-7.1,11.9-3.1,17.6c4,5.7,11.9,7.1,17.6,3.1c4-2.8,5.8-7.4,5.3-11.9C15.5-39.4,14.6-39.3,13.6-39.2z"/>
			</g>
		</g>
		<g id="XMLID_266_">
			<g id="XMLID_271_">
				<circle id="XMLID_272_" class="st2" cx="865.1" cy="-75.2" r="8.4"/>
			</g>
			<g id="XMLID_267_">
				<path id="XMLID_268_" class="st2" d="M872.4-64.8c5.7-4,7.1-11.9,3.1-17.6c-4-5.7-11.9-7.1-17.6-3.1c-5.7,4-7.1,11.9-3.1,17.6
					C858.8-62.1,866.7-60.8,872.4-64.8z M859.4-83.3c4.5-3.1,10.6-2.1,13.8,2.4c3.1,4.5,2.1,10.6-2.4,13.8
					c-4.5,3.1-10.6,2.1-13.8-2.4C853.9-73.9,855-80.1,859.4-83.3z"/>
			</g>
		</g>
		<g id="XMLID_259_">
			<g id="XMLID_264_">
				<circle id="XMLID_265_" class="st2" cx="630.8" cy="66.5" r="6.2"/>
			</g>
			<g id="XMLID_260_">
				<path id="XMLID_261_" class="st2" d="M636.1,74.2c4.2-3,5.2-8.8,2.3-13c-3-4.2-8.8-5.2-13-2.3c-4.2,3-5.2,8.8-2.3,13
					C626.1,76.1,631.9,77.1,636.1,74.2z M626.6,60.6c3.3-2.3,7.8-1.5,10.2,1.8c2.3,3.3,1.5,7.8-1.8,10.2c-3.3,2.3-7.8,1.5-10.2-1.8
					C622.5,67.4,623.3,62.9,626.6,60.6z"/>
			</g>
		</g>
		<g id="XMLID_252_">
			<g id="XMLID_257_">
				<circle id="XMLID_258_" class="st2" cx="513.6" cy="-196.3" r="6.2"/>
			</g>
			<g id="XMLID_253_">
				<path id="XMLID_254_" class="st2" d="M519-188.7c4.2-3,5.2-8.8,2.3-13c-3-4.2-8.8-5.2-13-2.3c-4.2,3-5.2,8.8-2.3,13
					C509-186.7,514.8-185.7,519-188.7z M509.5-202.3c3.3-2.3,7.8-1.5,10.2,1.8c2.3,3.3,1.5,7.8-1.8,10.2c-3.3,2.3-7.8,1.5-10.2-1.8
					C505.4-195.4,506.2-200,509.5-202.3z"/>
			</g>
		</g>
		<g id="XMLID_245_">
			<g id="XMLID_250_">
				<circle id="XMLID_251_" class="st2" cx="243.5" cy="-142.3" r="6.2"/>
			</g>
			<g id="XMLID_246_">
				<path id="XMLID_247_" class="st2" d="M248.8-134.6c4.2-3,5.2-8.8,2.3-13c-3-4.2-8.8-5.2-13-2.3c-4.2,3-5.2,8.8-2.3,13
					C238.8-132.7,244.6-131.7,248.8-134.6z M239.3-148.2c3.3-2.3,7.8-1.5,10.2,1.8c2.3,3.3,1.5,7.8-1.8,10.2
					c-3.3,2.3-7.8,1.5-10.2-1.8C235.2-141.4,236-145.9,239.3-148.2z"/>
			</g>
		</g>
		<g id="XMLID_238_">
			<g id="XMLID_243_">
				<circle id="XMLID_244_" class="st2" cx="69.5" cy="228.7" r="6.2"/>
			</g>
			<g id="XMLID_239_">
				<path id="XMLID_240_" class="st2" d="M74.8,236.4c4.2-3,5.2-8.8,2.3-13c-3-4.2-8.8-5.2-13-2.3c-4.2,3-5.2,8.8-2.3,13
					C64.8,238.3,70.6,239.3,74.8,236.4z M65.3,222.8c3.3-2.3,7.8-1.5,10.2,1.8c2.3,3.3,1.5,7.8-1.8,10.2c-3.3,2.3-7.8,1.5-10.2-1.8
					C61.2,229.6,62,225.1,65.3,222.8z"/>
			</g>
		</g>
		<g id="XMLID_234_">
			<g id="XMLID_235_">
				<path id="XMLID_236_" class="st2" d="M126.6,33.1c2.9-2.1,3.6-6.1,1.6-9c-2.1-2.9-6.1-3.6-9-1.6c-2.9,2.1-3.6,6.1-1.6,9
					C119.6,34.4,123.6,35.1,126.6,33.1z"/>
			</g>
		</g>
		<g id="XMLID_230_">
			<g id="XMLID_231_">
				<path id="XMLID_232_" class="st2" d="M726.6-45.9c2.9-2.1,3.6-6.1,1.6-9c-2.1-2.9-6.1-3.6-9-1.6c-2.9,2.1-3.6,6.1-1.6,9
					C719.6-44.6,723.7-43.9,726.6-45.9z"/>
			</g>
		</g>
		<g id="XMLID_226_">
			<g id="XMLID_227_">
				<path id="XMLID_228_" class="st2" d="M1041.8,172.5c2.9-2.1,3.6-6.1,1.6-9c-2.1-2.9-6.1-3.6-9-1.6c-2.9,2.1-3.6,6.1-1.6,9
					C1034.8,173.8,1038.8,174.5,1041.8,172.5z"/>
			</g>
		</g>
		<g id="XMLID_222_">
			<g id="XMLID_223_">
				<path id="XMLID_224_" class="st2" d="M456.2,78.4c2.9-2.1,3.6-6.1,1.6-9c-2.1-2.9-6.1-3.6-9-1.6c-2.9,2.1-3.6,6.1-1.6,9
					C449.2,79.7,453.2,80.4,456.2,78.4z"/>
			</g>
		</g>
		<g id="XMLID_218_">
			<g id="XMLID_219_">
				<path id="XMLID_220_" class="st2" d="M7.1,106.4c2.9-2.1,3.6-6.1,1.6-9c-2.1-2.9-6.1-3.6-9-1.6c-2.9,2.1-3.6,6.1-1.6,9
					C0.1,107.7,4.2,108.5,7.1,106.4z"/>
			</g>
		</g>
		<g id="XMLID_214_">
			<g id="XMLID_215_">
				<path id="XMLID_216_" class="st2" d="M419.8-111.2c2.9-2.1,3.6-6.1,1.6-9c-2.1-2.9-6.1-3.6-9-1.6c-2.9,2.1-3.6,6.1-1.6,9
					C412.9-109.9,416.9-109.1,419.8-111.2z"/>
			</g>
		</g>
		<g id="XMLID_207_">
			<g id="XMLID_212_">
				<circle id="XMLID_213_" class="st2" cx="127.3" cy="-80.1" r="6.2"/>
			</g>
			<g id="XMLID_208_">
				<path id="XMLID_209_" class="st2" d="M132.7-72.4c4.2-3,5.2-8.8,2.3-13c-3-4.2-8.8-5.2-13-2.3c-4.2,3-5.2,8.8-2.3,13
					C122.6-70.5,128.4-69.5,132.7-72.4z M123.1-86c3.3-2.3,7.8-1.5,10.2,1.8c2.3,3.3,1.5,7.8-1.8,10.2c-3.3,2.3-7.8,1.5-10.2-1.8
					C119-79.2,119.8-83.7,123.1-86z"/>
			</g>
		</g>
		<g id="XMLID_200_">
			<g id="XMLID_205_">
				<circle id="XMLID_206_" class="st2" cx="927.5" cy="-118.9" r="8.4"/>
			</g>
			<g id="XMLID_201_">
				<path id="XMLID_202_" class="st2" d="M934.8-108.5c5.7-4,7.1-11.9,3.1-17.6c-4-5.7-11.9-7.1-17.6-3.1c-5.7,4-7.1,11.9-3.1,17.6
					C921.1-105.9,929-104.5,934.8-108.5z M921.8-127c4.5-3.1,10.6-2.1,13.8,2.4c3.1,4.5,2.1,10.6-2.4,13.8
					c-4.5,3.1-10.6,2.1-13.8-2.4C916.3-117.7,917.3-123.9,921.8-127z"/>
			</g>
		</g>
		<g id="XMLID_193_">
			<g id="XMLID_198_">
				<circle id="XMLID_199_" class="st2" cx="913" cy="74.9" r="8.4"/>
			</g>
			<g id="XMLID_194_">
				<path id="XMLID_195_" class="st2" d="M920.3,85.2c5.7-4,7.1-11.9,3.1-17.6c-4-5.7-11.9-7.1-17.6-3.1c-5.7,4-7.1,11.9-3.1,17.6
					C906.6,87.9,914.5,89.3,920.3,85.2z M907.3,66.8c4.5-3.1,10.6-2.1,13.8,2.4c3.1,4.5,2.1,10.6-2.4,13.8
					c-4.5,3.1-10.6,2.1-13.8-2.4C901.7,76.1,902.8,69.9,907.3,66.8z"/>
			</g>
		</g>
		<g id="XMLID_186_">
			<g id="XMLID_191_">
				<path id="XMLID_192_" class="st2" d="M232.1,84.1c2.7,3.8,7.9,4.7,11.7,2.1c3.8-2.7,4.7-7.9,2.1-11.7c-2.7-3.8-7.9-4.7-11.7-2.1
					C230.4,75,229.5,80.3,232.1,84.1z"/>
			</g>
			<g id="XMLID_187_">
				<path id="XMLID_188_" class="st2" d="M246.3,89.6c5.7-4,7.1-11.9,3.1-17.6c-4-5.7-11.9-7.1-17.6-3.1c-5.7,4-7.1,11.9-3.1,17.6
					C232.7,92.3,240.6,93.7,246.3,89.6z M233.3,71.2c4.5-3.1,10.6-2.1,13.8,2.4c3.1,4.5,2.1,10.6-2.4,13.8
					c-4.5,3.1-10.6,2.1-13.8-2.4C227.8,80.5,228.9,74.3,233.3,71.2z"/>
			</g>
		</g>
		<g id="XMLID_179_">
			<g id="XMLID_184_">
				<circle id="XMLID_185_" class="st2" cx="821.6" cy="158.1" r="8.4"/>
			</g>
			<g id="XMLID_180_">
				<path id="XMLID_181_" class="st2" d="M828.9,168.4c5.7-4,7.1-11.9,3.1-17.6c-4-5.7-11.9-7.1-17.6-3.1c-5.7,4-7.1,11.9-3.1,17.6
					C815.2,171.1,823.1,172.5,828.9,168.4z M815.9,150c4.5-3.1,10.6-2.1,13.8,2.4c3.1,4.5,2.1,10.6-2.4,13.8
					c-4.5,3.1-10.6,2.1-13.8-2.4C810.4,159.3,811.4,153.1,815.9,150z"/>
			</g>
		</g>
	</g>
	<g id="XMLID_448_">
		<g id="XMLID_578_">
			<g id="XMLID_669_">
				<polygon id="XMLID_670_" class="st2" points="1858.5,-137.8 1750.2,-71.4 1749.6,-72.4 1857.9,-138.8 				"/>
			</g>
			<g id="XMLID_667_">
				
					<rect id="XMLID_668_" x="1803.3" y="-103.7" transform="matrix(0.4843 -0.8749 0.8749 0.4843 966.9359 1556.493)" class="st2" width="1.2" height="123.3"/>
			</g>
			<g id="XMLID_665_">
				
					<rect id="XMLID_666_" x="1382.3" y="73.8" transform="matrix(0.8959 -0.4442 0.4442 0.8959 124.1696 678.711)" class="st2" width="256" height="1.2"/>
			</g>
			<g id="XMLID_663_">
				
					<rect id="XMLID_664_" x="1297.9" y="8.4" transform="matrix(0.2201 -0.9755 0.9755 0.2201 1101.2115 1395.3458)" class="st2" width="250.7" height="1.2"/>
			</g>
			<g id="XMLID_661_">
				
					<rect id="XMLID_662_" x="1537.3" y="-156.8" transform="matrix(0.6005 -0.7996 0.7996 0.6005 652.7345 1210.6639)" class="st2" width="1.2" height="217.9"/>
			</g>
			<g id="XMLID_659_">
				
					<rect id="XMLID_660_" x="1193.6" y="-57.4" transform="matrix(0.9078 -0.4193 0.4193 0.9078 146.2509 551.8412)" class="st2" width="269.7" height="1.2"/>
			</g>
			<g id="XMLID_657_">
				
					<rect id="XMLID_658_" x="1180" y="-54.2" transform="matrix(0.616 -0.7877 0.7877 0.616 521.3406 962.3163)" class="st2" width="135.5" height="1.2"/>
			</g>
			<g id="XMLID_655_">
				
					<rect id="XMLID_656_" x="1289.4" y="-110.7" transform="matrix(0.9992 -3.917096e-002 3.917096e-002 0.9992 5.3663 53.5866)" class="st2" width="161.5" height="1.2"/>
			</g>
			<g id="XMLID_653_">
				
					<rect id="XMLID_654_" x="1202.4" y="-244.4" transform="matrix(0.4318 -0.902 0.902 0.4318 817.4843 1000.7235)" class="st2" width="1.2" height="191.9"/>
			</g>
			<g id="XMLID_651_">
				
					<rect id="XMLID_652_" x="1119.2" y="-160.8" transform="matrix(0.5529 -0.8333 0.8333 0.5529 548.519 907.4699)" class="st2" width="1.2" height="206.8"/>
			</g>
			<g id="XMLID_649_">
				
					<rect id="XMLID_650_" x="1019.1" y="-152.8" transform="matrix(0.7395 -0.6732 0.6732 0.7395 382.5938 684.0871)" class="st2" width="112" height="1.2"/>
			</g>
			<g id="XMLID_647_">
				<polygon id="XMLID_648_" class="st2" points="1206.5,0.2 1097.3,107.4 1096.3,106.6 1205.5,-0.6 				"/>
			</g>
			<g id="XMLID_645_">
				<polygon id="XMLID_646_" class="st2" points="1097.2,106.6 1096.4,107.4 1018.9,60.4 1019.7,59.5 				"/>
			</g>
			<g id="XMLID_643_">
				
					<rect id="XMLID_644_" x="1014.6" y="29.3" transform="matrix(0.9518 -0.3066 0.3066 0.9518 44.4438 342.6187)" class="st2" width="196.2" height="1.2"/>
			</g>
			<g id="XMLID_641_">
				
					<rect id="XMLID_642_" x="1696.2" y="-150.4" transform="matrix(0.3729 -0.9279 0.9279 0.3729 1150.5968 1516.0208)" class="st2" width="1.2" height="114.4"/>
			</g>
			<g id="XMLID_639_">
				
					<rect id="XMLID_640_" x="1624.8" y="23.2" transform="matrix(0.9976 6.918956e-002 -6.918956e-002 0.9976 5.7598 -118.6542)" class="st2" width="181.9" height="1.2"/>
			</g>
			<g id="XMLID_637_">
				
					<rect id="XMLID_638_" x="1393.3" y="106.4" transform="matrix(0.9808 -0.1948 0.1948 0.9808 8.2272 297.6937)" class="st2" width="249" height="1.2"/>
			</g>
			<g id="XMLID_635_">
				
					<rect id="XMLID_636_" x="1632.8" y="53.7" transform="matrix(0.8812 -0.4728 0.4728 0.8812 175.4588 806.8173)" class="st2" width="120.3" height="1.2"/>
			</g>
			<g id="XMLID_633_">
				
					<rect id="XMLID_634_" x="1747.3" y="-71.9" transform="matrix(0.9992 4.054373e-002 -4.054373e-002 0.9992 0.5064 -70.8834)" class="st2" width="1.2" height="97.8"/>
			</g>
			<g id="XMLID_631_">
				
					<rect id="XMLID_632_" x="1600" y="4.9" transform="matrix(0.5796 -0.8149 0.8149 0.5796 708.1299 1383.4972)" class="st2" width="189.7" height="1.2"/>
			</g>
			<g id="XMLID_629_">
				
					<rect id="XMLID_630_" x="1311.8" y="-19.3" transform="matrix(0.8461 -0.533 0.533 0.8461 239.4747 792.1375)" class="st2" width="359.7" height="1.2"/>
			</g>
			<g id="XMLID_627_">
				
					<rect id="XMLID_628_" x="1573.3" y="-229.8" transform="matrix(0.463 -0.8864 0.8864 0.463 979.0082 1313.9761)" class="st2" width="1.2" height="157.6"/>
			</g>
			<g id="XMLID_625_">
				
					<rect id="XMLID_626_" x="1284.8" y="-18.7" transform="matrix(0.5048 -0.8632 0.8632 0.5048 706.4973 1195.4111)" class="st2" width="220.7" height="1.2"/>
			</g>
			<g id="XMLID_623_">
				
					<rect id="XMLID_624_" x="1207.7" y="-84.8" transform="matrix(0.2075 -0.9782 0.9782 0.2075 909.2504 1221.0313)" class="st2" width="1.2" height="268.2"/>
			</g>
			<g id="XMLID_621_">
				
					<rect id="XMLID_622_" x="1326.4" y="2.1" transform="matrix(0.94 -0.3413 0.3413 0.94 91.8199 527.3061)" class="st2" width="436.6" height="1.2"/>
			</g>
			<g id="XMLID_619_">
				
					<rect id="XMLID_620_" x="989.3" y="-84.8" transform="matrix(0.1834 -0.983 0.983 0.1834 978.4204 1009.3841)" class="st2" width="215.1" height="1.2"/>
			</g>
			<g id="XMLID_617_">
				
					<rect id="XMLID_618_" x="1059.2" y="-43.4" transform="matrix(0.8558 -0.5174 0.5174 0.8558 192.8119 606.0433)" class="st2" width="248.2" height="1.2"/>
			</g>
			<g id="XMLID_615_">
				
					<rect id="XMLID_616_" x="1227.4" y="-230.4" transform="matrix(0.7675 -0.641 0.641 0.7675 321.6447 774.0787)" class="st2" width="1.2" height="347.9"/>
			</g>
			<g id="XMLID_613_">
				
					<rect id="XMLID_614_" x="933.8" y="-65.6" transform="matrix(0.3626 -0.9319 0.9319 0.3626 741.2655 953.7906)" class="st2" width="268.1" height="1.2"/>
			</g>
			<g id="XMLID_611_">
				
					<rect id="XMLID_612_" x="1798.9" y="8.4" transform="matrix(0.7721 -0.6355 0.6355 0.7721 411.8418 1166.3684)" class="st2" width="66.5" height="1.2"/>
			</g>
			<g id="XMLID_609_">
				<polygon id="XMLID_610_" class="st2" points="1858.7,-138 1858.3,-11.9 1857.3,-12.4 1857.7,-138.6 				"/>
			</g>
			<g id="XMLID_607_">
				
					<rect id="XMLID_608_" x="1821" y="20.9" transform="matrix(0.4608 -0.8875 0.8875 0.4608 948.5029 1637.2032)" class="st2" width="1.2" height="34.2"/>
			</g>
			<g id="XMLID_605_">
				
					<rect id="XMLID_606_" x="1633.8" y="-115.2" transform="matrix(0.9901 0.1401 -0.1401 0.9901 9.3215 -229.4209)" class="st2" width="1.2" height="133.4"/>
			</g>
			<g id="XMLID_603_">
				
					<rect id="XMLID_604_" x="1624.3" y="-242" transform="matrix(0.661 -0.7504 0.7504 0.661 611.4482 1191.9589)" class="st2" width="1.2" height="322.5"/>
			</g>
			<g id="XMLID_601_">
				
					<rect id="XMLID_602_" x="1431.8" y="-151" transform="matrix(0.583 -0.8125 0.8125 0.583 738.2618 1137.6772)" class="st2" width="91.2" height="1.2"/>
			</g>
			<g id="XMLID_599_">
				
					<rect id="XMLID_600_" x="1282.2" y="-147.8" transform="matrix(0.9364 -0.351 0.351 0.9364 140.5587 480.9459)" class="st2" width="229.1" height="1.2"/>
			</g>
			<g id="XMLID_597_">
				
					<rect id="XMLID_598_" x="1025.9" y="-114.8" transform="matrix(0.9966 8.199158e-002 -8.199158e-002 0.9966 1.2178 -84.2549)" class="st2" width="1.2" height="175.1"/>
			</g>
			<g id="XMLID_595_">
				
					<rect id="XMLID_596_" x="952.4" y="-78" transform="matrix(0.6249 -0.7807 0.7807 0.6249 352.0822 746.5848)" class="st2" width="1.2" height="169.8"/>
			</g>
			<g id="XMLID_593_">
				
					<rect id="XMLID_594_" x="879.2" y="-81" transform="matrix(0.9067 -0.4218 0.4218 0.9067 123.5005 397.5289)" class="st2" width="162" height="1.2"/>
			</g>
			<g id="XMLID_591_">
				<polygon id="XMLID_592_" class="st2" points="1034,-115 1033.3,-114.1 920,-197.7 920.7,-198.7 				"/>
			</g>
			<g id="XMLID_589_">
				<polygon id="XMLID_590_" class="st2" points="887.4,-46.2 886.2,-46.2 919.7,-198.2 920.9,-198.2 				"/>
			</g>
			<g id="XMLID_587_">
				<polygon id="XMLID_588_" class="st2" points="1116.4,-189.4 920.2,-197.6 920.4,-198.8 1116.6,-190.5 				"/>
			</g>
			<g id="XMLID_585_">
				<polygon id="XMLID_586_" class="st2" points="1097.4,106.9 1096.2,107.1 1076.5,21.5 1077.7,21.4 				"/>
			</g>
			<g id="XMLID_583_">
				
					<rect id="XMLID_584_" x="1679.4" y="-163.8" transform="matrix(0.2541 -0.9672 0.9672 0.2541 1481.0144 1593.9308)" class="st2" width="188.9" height="1.2"/>
			</g>
			<g id="XMLID_581_">
				<polygon id="XMLID_582_" class="st2" points="1858.4,-138.9 1858,-137.7 1797.7,-254 1798.1,-255.1 				"/>
			</g>
			<g id="XMLID_579_">
				
					<rect id="XMLID_580_" x="1616.7" y="-185.1" transform="matrix(0.7401 -0.6725 0.6725 0.7401 571.3904 1109.3296)" class="st2" width="208.3" height="1.2"/>
			</g>
		</g>
		<g id="XMLID_571_">
			<g id="XMLID_576_">
				<circle id="XMLID_577_" class="st2" cx="1339.5" cy="77.2" r="9.9"/>
			</g>
			<g id="XMLID_572_">
				<path id="XMLID_573_" class="st2" d="M1330.9,64.9c-6.8,4.7-8.4,14.1-3.7,20.8c4.7,6.8,14.1,8.4,20.8,3.7
					c6.8-4.7,8.4-14.1,3.7-20.8C1347,61.8,1337.6,60.2,1330.9,64.9z M1346.2,86.7c-5.3,3.7-12.6,2.4-16.3-2.9
					c-3.7-5.3-2.4-12.6,2.9-16.3c5.3-3.7,12.6-2.4,16.3,2.9C1352.7,75.8,1351.5,83,1346.2,86.7z"/>
			</g>
		</g>
		<g id="XMLID_564_">
			<g id="XMLID_569_">
				<circle id="XMLID_570_" class="st2" cx="1096.8" cy="107" r="9.9"/>
			</g>
			<g id="XMLID_565_">
				<path id="XMLID_566_" class="st2" d="M1088.2,94.8c-6.8,4.7-8.4,14.1-3.7,20.8c4.7,6.8,14.1,8.4,20.8,3.7
					c6.8-4.7,8.4-14.1,3.7-20.8C1104.3,91.7,1095,90,1088.2,94.8z M1103.5,116.6c-5.3,3.7-12.6,2.4-16.3-2.9
					c-3.7-5.3-2.4-12.6,2.9-16.3c5.3-3.7,12.6-2.4,16.3,2.9C1110.1,105.6,1108.8,112.9,1103.5,116.6z"/>
			</g>
		</g>
		<g id="XMLID_557_">
			<g id="XMLID_562_">
				<circle id="XMLID_563_" class="st2" cx="1504" cy="-187.4" r="7.6"/>
			</g>
			<g id="XMLID_558_">
				<path id="XMLID_559_" class="st2" d="M1497.4-196.8c-5.2,3.6-6.5,10.8-2.8,16c3.6,5.2,10.8,6.5,16,2.8c5.2-3.6,6.5-10.8,2.8-16
					C1509.8-199.2,1502.6-200.5,1497.4-196.8z M1509.2-180.1c-4.1,2.8-9.7,1.9-12.5-2.2c-2.8-4.1-1.9-9.7,2.2-12.5
					c4.1-2.8,9.7-1.9,12.5,2.2C1514.2-188.5,1513.2-182.9,1509.2-180.1z"/>
			</g>
		</g>
		<g id="XMLID_550_">
			<g id="XMLID_555_">
				<circle id="XMLID_556_" class="st2" cx="1624.2" cy="16.3" r="7.6"/>
			</g>
			<g id="XMLID_551_">
				<path id="XMLID_552_" class="st2" d="M1617.6,6.9c-5.2,3.6-6.5,10.8-2.8,16c3.6,5.2,10.8,6.5,16,2.8c5.2-3.6,6.5-10.8,2.8-16
					C1629.9,4.5,1622.8,3.3,1617.6,6.9z M1629.3,23.6c-4.1,2.8-9.7,1.9-12.5-2.2S1615,11.8,1619,9c4.1-2.8,9.7-1.9,12.5,2.2
					C1634.4,15.2,1633.4,20.8,1629.3,23.6z"/>
			</g>
		</g>
		<g id="XMLID_543_">
			<g id="XMLID_548_">
				<circle id="XMLID_549_" class="st2" cx="1857.8" cy="-12.2" r="7.6"/>
			</g>
			<g id="XMLID_544_">
				<path id="XMLID_545_" class="st2" d="M1851.2-21.6c-5.2,3.6-6.5,10.8-2.8,16c3.6,5.2,10.8,6.5,16,2.8c5.2-3.6,6.5-10.8,2.8-16
					C1863.6-24,1856.4-25.2,1851.2-21.6z M1863-4.8c-4.1,2.8-9.7,1.9-12.5-2.2c-2.8-4.1-1.9-9.7,2.2-12.5c4.1-2.8,9.7-1.9,12.5,2.2
					C1868-13.3,1867-7.7,1863-4.8z"/>
			</g>
		</g>
		<g id="XMLID_536_">
			<g id="XMLID_541_">
				<circle id="XMLID_542_" class="st2" cx="1077.1" cy="21.5" r="7.6"/>
			</g>
			<g id="XMLID_537_">
				<path id="XMLID_538_" class="st2" d="M1070.5,12c-5.2,3.6-6.5,10.8-2.8,16c3.6,5.2,10.8,6.5,16,2.8c5.2-3.6,6.5-10.8,2.8-16
					C1082.8,9.7,1075.7,8.4,1070.5,12z M1082.2,28.8c-4.1,2.8-9.7,1.9-12.5-2.2c-2.8-4.1-1.9-9.7,2.2-12.5c4.1-2.8,9.7-1.9,12.5,2.2
					C1087.3,20.4,1086.3,26,1082.2,28.8z"/>
			</g>
		</g>
		<g id="XMLID_529_">
			<g id="XMLID_534_">
				<circle id="XMLID_535_" class="st2" cx="1289.5" cy="-107" r="5.6"/>
			</g>
			<g id="XMLID_530_">
				<path id="XMLID_531_" class="st2" d="M1284.6-113.9c-3.8,2.7-4.8,8-2.1,11.8c2.7,3.8,8,4.8,11.8,2.1c3.8-2.7,4.8-8,2.1-11.8
					C1293.7-115.7,1288.5-116.6,1284.6-113.9z M1293.3-101.6c-3,2.1-7.1,1.4-9.2-1.6c-2.1-3-1.4-7.1,1.6-9.2c3-2.1,7.1-1.4,9.2,1.6
					C1297-107.8,1296.3-103.7,1293.3-101.6z"/>
			</g>
		</g>
		<g id="XMLID_522_">
			<g id="XMLID_527_">
				<circle id="XMLID_528_" class="st2" cx="1395.7" cy="131.3" r="5.6"/>
			</g>
			<g id="XMLID_523_">
				<path id="XMLID_524_" class="st2" d="M1390.8,124.3c-3.8,2.7-4.8,8-2.1,11.8c2.7,3.8,8,4.8,11.8,2.1c3.8-2.7,4.8-8,2.1-11.8
					C1399.9,122.6,1394.6,121.7,1390.8,124.3z M1399.5,136.7c-3,2.1-7.1,1.4-9.2-1.6c-2.1-3-1.4-7.1,1.6-9.2c3-2.1,7.1-1.4,9.2,1.6
					C1403.2,130.5,1402.4,134.6,1399.5,136.7z"/>
			</g>
		</g>
		<g id="XMLID_515_">
			<g id="XMLID_520_">
				<circle id="XMLID_521_" class="st2" cx="1640.6" cy="82.3" r="5.6"/>
			</g>
			<g id="XMLID_516_">
				<path id="XMLID_517_" class="st2" d="M1635.7,75.4c-3.8,2.7-4.8,8-2.1,11.8c2.7,3.8,8,4.8,11.8,2.1c3.8-2.7,4.8-8,2.1-11.8
					C1644.8,73.6,1639.5,72.7,1635.7,75.4z M1644.4,87.7c-3,2.1-7.1,1.4-9.2-1.6c-2.1-3-1.4-7.1,1.6-9.2c3-2.1,7.1-1.4,9.2,1.6
					C1648.1,81.5,1647.4,85.6,1644.4,87.7z"/>
			</g>
		</g>
		<g id="XMLID_508_">
			<g id="XMLID_513_">
				<circle id="XMLID_514_" class="st2" cx="1798.3" cy="-254" r="5.6"/>
			</g>
			<g id="XMLID_509_">
				<path id="XMLID_510_" class="st2" d="M1793.4-260.9c-3.8,2.7-4.8,8-2.1,11.8c2.7,3.8,8,4.8,11.8,2.1c3.8-2.7,4.8-8,2.1-11.8
					C1802.5-262.7,1797.3-263.6,1793.4-260.9z M1802.1-248.6c-3,2.1-7.1,1.4-9.2-1.6c-2.1-3-1.4-7.1,1.6-9.2c3-2.1,7.1-1.4,9.2,1.6
					C1805.8-254.8,1805.1-250.7,1802.1-248.6z"/>
			</g>
		</g>
		<g id="XMLID_504_">
			<g id="XMLID_505_">
				<path id="XMLID_506_" class="st2" d="M1746.5-76.7c-2.7,1.9-3.3,5.5-1.4,8.2c1.9,2.7,5.5,3.3,8.2,1.4c2.7-1.9,3.3-5.5,1.4-8.2
					C1752.8-77.9,1749.2-78.5,1746.5-76.7z"/>
			</g>
		</g>
		<g id="XMLID_500_">
			<g id="XMLID_501_">
				<path id="XMLID_502_" class="st2" d="M1202.6-5c-2.7,1.9-3.3,5.5-1.4,8.2c1.9,2.7,5.5,3.3,8.2,1.4c2.7-1.9,3.3-5.5,1.4-8.2
					C1209-6.2,1205.3-6.9,1202.6-5z"/>
			</g>
		</g>
		<g id="XMLID_496_">
			<g id="XMLID_497_">
				<path id="XMLID_498_" class="st2" d="M917-203c-2.7,1.9-3.3,5.5-1.4,8.2c1.9,2.7,5.5,3.3,8.2,1.4c2.7-1.9,3.3-5.5,1.4-8.2
					C923.3-204.2,919.6-204.9,917-203z"/>
			</g>
		</g>
		<g id="XMLID_492_">
			<g id="XMLID_493_">
				<path id="XMLID_494_" class="st2" d="M1447.8-117.7c-2.7,1.9-3.3,5.5-1.4,8.2c1.9,2.7,5.5,3.3,8.2,1.4c2.7-1.9,3.3-5.5,1.4-8.2
					C1454.1-118.9,1450.4-119.6,1447.8-117.7z"/>
			</g>
		</g>
		<g id="XMLID_488_">
			<g id="XMLID_489_">
				<path id="XMLID_490_" class="st2" d="M1854.8-143.1c-2.7,1.9-3.3,5.5-1.4,8.2c1.9,2.7,5.5,3.3,8.2,1.4c2.7-1.9,3.3-5.5,1.4-8.2
					C1861.1-144.3,1857.5-145,1854.8-143.1z"/>
			</g>
		</g>
		<g id="XMLID_484_">
			<g id="XMLID_485_">
				<path id="XMLID_486_" class="st2" d="M1480.7,54.1c-2.7,1.9-3.3,5.5-1.4,8.2c1.9,2.7,5.5,3.3,8.2,1.4c2.7-1.9,3.3-5.5,1.4-8.2
					C1487,52.9,1483.4,52.3,1480.7,54.1z"/>
			</g>
		</g>
		<g id="XMLID_477_">
			<g id="XMLID_482_">
				<circle id="XMLID_483_" class="st2" cx="1745.9" cy="25.9" r="5.6"/>
			</g>
			<g id="XMLID_478_">
				<path id="XMLID_479_" class="st2" d="M1741,19c-3.8,2.7-4.8,8-2.1,11.8c2.7,3.8,8,4.8,11.8,2.1c3.8-2.7,4.8-8,2.1-11.8
					C1750.1,17.2,1744.8,16.3,1741,19z M1749.7,31.3c-3,2.1-7.1,1.4-9.2-1.6c-2.1-3-1.4-7.1,1.6-9.2c3-2.1,7.1-1.4,9.2,1.6
					C1753.4,25.1,1752.7,29.2,1749.7,31.3z"/>
			</g>
		</g>
		<g id="XMLID_470_">
			<g id="XMLID_475_">
				<circle id="XMLID_476_" class="st2" cx="1020.5" cy="61.1" r="7.6"/>
			</g>
			<g id="XMLID_471_">
				<path id="XMLID_472_" class="st2" d="M1013.9,51.7c-5.2,3.6-6.5,10.8-2.8,16c3.6,5.2,10.8,6.5,16,2.8c5.2-3.6,6.5-10.8,2.8-16
					C1026.3,49.3,1019.1,48.1,1013.9,51.7z M1025.7,68.5c-4.1,2.8-9.7,1.9-12.5-2.2c-2.8-4.1-1.9-9.7,2.2-12.5
					c4.1-2.8,9.7-1.9,12.5,2.2C1030.7,60,1029.7,65.6,1025.7,68.5z"/>
			</g>
		</g>
		<g id="XMLID_463_">
			<g id="XMLID_468_">
				<circle id="XMLID_469_" class="st2" cx="1033.7" cy="-114.5" r="7.6"/>
			</g>
			<g id="XMLID_464_">
				<path id="XMLID_465_" class="st2" d="M1027.1-123.9c-5.2,3.6-6.5,10.8-2.8,16c3.6,5.2,10.8,6.5,16,2.8c5.2-3.6,6.5-10.8,2.8-16
					C1039.4-126.3,1032.3-127.6,1027.1-123.9z M1038.8-107.2c-4.1,2.8-9.7,1.9-12.5-2.2c-2.8-4.1-1.9-9.7,2.2-12.5
					c4.1-2.8,9.7-1.9,12.5,2.2C1043.9-115.6,1042.9-110,1038.8-107.2z"/>
			</g>
		</g>
		<g id="XMLID_456_">
			<g id="XMLID_461_">
				<circle id="XMLID_462_" class="st2" cx="1644.6" cy="-118.5" r="7.6"/>
			</g>
			<g id="XMLID_457_">
				<path id="XMLID_458_" class="st2" d="M1638-127.9c-5.2,3.6-6.5,10.8-2.8,16c3.6,5.2,10.8,6.5,16,2.8c5.2-3.6,6.5-10.8,2.8-16
					C1650.4-130.3,1643.2-131.6,1638-127.9z M1649.7-111.2c-4.1,2.8-9.7,1.9-12.5-2.2c-2.8-4.1-1.9-9.7,2.2-12.5
					c4.1-2.8,9.7-1.9,12.5,2.2C1654.8-119.6,1653.8-114,1649.7-111.2z"/>
			</g>
		</g>
		<g id="XMLID_449_">
			<g id="XMLID_454_">
				<circle id="XMLID_455_" class="st2" cx="1116.5" cy="-190" r="7.6"/>
			</g>
			<g id="XMLID_450_">
				<path id="XMLID_451_" class="st2" d="M1109.9-199.4c-5.2,3.6-6.5,10.8-2.8,16c3.6,5.2,10.8,6.5,16,2.8c5.2-3.6,6.5-10.8,2.8-16
					C1122.3-201.7,1115.1-203,1109.9-199.4z M1121.7-182.6c-4.1,2.8-9.7,1.9-12.5-2.2c-2.8-4.1-1.9-9.7,2.2-12.5
					c4.1-2.8,9.7-1.9,12.5,2.2C1126.7-191,1125.7-185.4,1121.7-182.6z"/>
			</g>
		</g>
	</g>
	<g id="XMLID_2_" class="st3">
		<g id="XMLID_132_">
			<g id="XMLID_446_">
				<polygon id="XMLID_447_" class="st4" points="10.5,198 196,84.2 197.1,85.9 11.6,199.8 				"/>
			</g>
			<g id="XMLID_444_">
				
					<rect id="XMLID_445_" x="103.1" y="-71.8" transform="matrix(-0.4843 0.8749 -0.8749 -0.4843 184.2016 -40.7822)" class="st4" width="2.1" height="211.3"/>
			</g>
			<g id="XMLID_442_">
				
					<rect id="XMLID_443_" x="387.7" y="-166.6" transform="matrix(-0.8959 0.4442 -0.4442 -0.8959 1077.3258 -583.5756)" class="st4" width="438.7" height="2"/>
			</g>
			<g id="XMLID_440_">
				
					<rect id="XMLID_441_" x="541.5" y="-54.5" transform="matrix(-0.2201 0.9755 -0.9755 -0.2201 870.5724 -802.9564)" class="st4" width="429.6" height="2"/>
			</g>
			<g id="XMLID_438_">
				
					<rect id="XMLID_439_" x="558.7" y="-142.7" transform="matrix(-0.6005 0.7996 -0.7996 -0.6005 931.0322 -377.2216)" class="st4" width="2.1" height="373.3"/>
			</g>
			<g id="XMLID_436_">
				
					<rect id="XMLID_437_" x="687.7" y="58.1" transform="matrix(-0.9078 0.4193 -0.4193 -0.9078 1777.6223 -272.3801)" class="st4" width="462.1" height="2"/>
			</g>
			<g id="XMLID_434_">
				
					<rect id="XMLID_435_" x="940.8" y="52.7" transform="matrix(-0.616 0.7877 -0.7877 -0.616 1750.434 -745.743)" class="st4" width="232.3" height="2.1"/>
			</g>
			<g id="XMLID_432_">
				
					<rect id="XMLID_433_" x="708.9" y="149.6" transform="matrix(-0.9992 3.917096e-002 -3.917096e-002 -0.9992 1699.6716 268.0016)" class="st4" width="276.7" height="2.1"/>
			</g>
			<g id="XMLID_430_">
				
					<rect id="XMLID_431_" x="1132.6" y="51.9" transform="matrix(-0.4318 0.902 -0.902 -0.4318 1818.2468 -712.8149)" class="st4" width="2" height="328.7"/>
			</g>
			<g id="XMLID_428_">
				
					<rect id="XMLID_429_" x="1275.1" y="-117" transform="matrix(-0.5529 0.8333 -0.8333 -0.5529 2031.8885 -969.8525)" class="st4" width="2" height="354.4"/>
			</g>
			<g id="XMLID_426_">
				
					<rect id="XMLID_427_" x="1256.9" y="221.8" transform="matrix(-0.7395 0.6732 -0.6732 -0.7395 2503.1636 -523.2077)" class="st4" width="191.9" height="2.1"/>
			</g>
			<g id="XMLID_424_">
				<polygon id="XMLID_425_" class="st4" points="1127.7,-38.4 1314.9,-222.1 1316.4,-220.8 1129.3,-37.1 				"/>
			</g>
			<g id="XMLID_422_">
				<polygon id="XMLID_423_" class="st4" points="1314.9,-220.7 1316.4,-222.2 1449.2,-141.5 1447.7,-140.1 				"/>
			</g>
			<g id="XMLID_420_">
				
					<rect id="XMLID_421_" x="1120.4" y="-90.3" transform="matrix(-0.9518 0.3066 -0.3066 -0.9518 2487.5215 -569.3115)" class="st4" width="336.1" height="2.1"/>
			</g>
			<g id="XMLID_418_">
				
					<rect id="XMLID_419_" x="286.5" y="23.6" transform="matrix(-0.3729 0.9279 -0.9279 -0.3729 507.5053 -99.8382)" class="st4" width="2.1" height="196"/>
			</g>
			<g id="XMLID_416_">
				
					<rect id="XMLID_417_" x="99.3" y="-79.9" transform="matrix(-0.9976 -6.918956e-002 6.918956e-002 -0.9976 515.035 -139.9692)" class="st4" width="311.6" height="2"/>
			</g>
			<g id="XMLID_414_">
				
					<rect id="XMLID_415_" x="381" y="-222.5" transform="matrix(-0.9808 0.1948 -0.1948 -0.9808 1134.0686 -554.4326)" class="st4" width="426.7" height="2.1"/>
			</g>
			<g id="XMLID_412_">
				
					<rect id="XMLID_413_" x="191.2" y="-132.2" transform="matrix(-0.8812 0.4728 -0.4728 -0.8812 491.5241 -385.9142)" class="st4" width="206.1" height="2"/>
			</g>
			<g id="XMLID_410_">
				
					<rect id="XMLID_411_" x="199" y="-82.6" transform="matrix(-0.9992 -4.054373e-002 4.054373e-002 -0.9992 399.9212 10.6003)" class="st4" width="2" height="167.6"/>
			</g>
			<g id="XMLID_408_">
				
					<rect id="XMLID_409_" x="128.3" y="-48.5" transform="matrix(-0.5796 0.8149 -0.8149 -0.5796 420.743 -311.9968)" class="st4" width="325" height="2"/>
			</g>
			<g id="XMLID_406_">
				
					<rect id="XMLID_407_" x="331" y="-7.1" transform="matrix(-0.8461 0.533 -0.533 -0.8461 1176.6554 -351.9046)" class="st4" width="616.3" height="2.1"/>
			</g>
			<g id="XMLID_404_">
				
					<rect id="XMLID_405_" x="497.1" y="85.5" transform="matrix(-0.463 0.8864 -0.8864 -0.463 924.2938 -118.8355)" class="st4" width="2" height="270.1"/>
			</g>
			<g id="XMLID_402_">
				
					<rect id="XMLID_403_" x="615.4" y="-8.2" transform="matrix(-0.5048 0.8632 -0.8632 -0.5048 1204.3123 -705.1312)" class="st4" width="378.1" height="2"/>
			</g>
			<g id="XMLID_177_">
				
					<rect id="XMLID_401_" x="1123.6" y="-352.4" transform="matrix(-0.2075 0.9782 -0.9782 -0.2075 1238.1458 -1248.1884)" class="st4" width="2" height="459.6"/>
			</g>
			<g id="XMLID_175_">
				<polygon id="XMLID_176_" class="st4" points="196.3,84 899.5,-171.3 900.2,-169.4 197,85.9 				"/>
			</g>
			<g id="XMLID_173_">
				
					<rect id="XMLID_174_" x="1131.4" y="105.2" transform="matrix(-0.1834 0.983 -0.983 -0.1834 1661.4552 -1167.5687)" class="st4" width="368.5" height="2"/>
			</g>
			<g id="XMLID_171_">
				
					<rect id="XMLID_172_" x="954.8" y="34.2" transform="matrix(-0.8558 0.5174 -0.5174 -0.8558 2184.6968 -538.7095)" class="st4" width="425.4" height="2"/>
			</g>
			<g id="XMLID_169_">
				
					<rect id="XMLID_170_" x="1089.8" y="-239.6" transform="matrix(-0.7675 0.641 -0.641 -0.7675 1965.6063 -595.8272)" class="st4" width="2" height="596.2"/>
			</g>
			<g id="XMLID_167_">
				
					<rect id="XMLID_168_" x="1135.4" y="72.3" transform="matrix(-0.3626 0.9319 -0.9319 -0.3626 1928.4635 -1172.3778)" class="st4" width="459.4" height="2"/>
			</g>
			<g id="XMLID_165_">
				
					<rect id="XMLID_166_" x="-1.3" y="-54.5" transform="matrix(-0.7721 0.6355 -0.6355 -0.7721 64.6647 -130.125)" class="st4" width="114" height="2"/>
			</g>
			<g id="XMLID_163_">
				<polygon id="XMLID_164_" class="st4" points="10.1,198.4 10.8,-17.7 12.6,-16.8 11.9,199.4 				"/>
			</g>
			<g id="XMLID_161_">
				
					<rect id="XMLID_162_" x="72.6" y="-132.5" transform="matrix(-0.4608 0.8875 -0.8875 -0.4608 15.9754 -216.1167)" class="st4" width="2.1" height="58.7"/>
			</g>
			<g id="XMLID_159_">
				
					<rect id="XMLID_160_" x="393.4" y="-69.3" transform="matrix(-0.9901 -0.1401 0.1401 -0.9901 778.7379 144.8174)" class="st4" width="2.1" height="228.5"/>
			</g>
			<g id="XMLID_157_">
				
					<rect id="XMLID_158_" x="409.7" y="-176" transform="matrix(-0.661 0.7504 -0.7504 -0.661 757.3764 -141.6138)" class="st4" width="2.1" height="552.6"/>
			</g>
			<g id="XMLID_155_">
				
					<rect id="XMLID_156_" x="585.3" y="218.5" transform="matrix(-0.583 0.8125 -0.8125 -0.583 1228.5867 -191.4795)" class="st4" width="156.3" height="2"/>
			</g>
			<g id="XMLID_153_">
				
					<rect id="XMLID_154_" x="605.4" y="213.1" transform="matrix(-0.9364 0.351 -0.351 -0.9364 1627.4713 133.2218)" class="st4" width="392.5" height="2"/>
			</g>
			<g id="XMLID_151_">
				
					<rect id="XMLID_152_" x="1435.1" y="-141.3" transform="matrix(-0.9966 -8.199158e-002 8.199158e-002 -0.9966 2866.6985 135.0965)" class="st4" width="2.1" height="300"/>
			</g>
			<g id="XMLID_149_">
				
					<rect id="XMLID_150_" x="1561" y="-195.3" transform="matrix(-0.6249 0.7807 -0.7807 -0.6249 2499.1992 -1300.4485)" class="st4" width="2" height="290.9"/>
			</g>
			<g id="XMLID_147_">
				
					<rect id="XMLID_148_" x="1410.8" y="98.6" transform="matrix(-0.9067 0.4218 -0.4218 -0.9067 2996.7383 -463.7321)" class="st4" width="277.6" height="2.1"/>
			</g>
			<g id="XMLID_145_">
				<polygon id="XMLID_146_" class="st4" points="1423.2,159 1424.4,157.3 1618.6,300.7 1617.4,302.4 				"/>
			</g>
			<g id="XMLID_143_">
				<polygon id="XMLID_144_" class="st4" points="1674.5,41 1676.6,41.1 1619.1,301.6 1617,301.5 				"/>
			</g>
			<g id="XMLID_141_">
				<polygon id="XMLID_142_" class="st4" points="1282,286.4 1618.2,300.5 1617.9,302.6 1281.7,288.4 				"/>
			</g>
			<g id="XMLID_139_">
				<polygon id="XMLID_140_" class="st4" points="1314.6,-221.3 1316.7,-221.6 1350.5,-75 1348.4,-74.7 				"/>
			</g>
			<g id="XMLID_137_">
				
					<rect id="XMLID_138_" x="-6.4" y="240.5" transform="matrix(-0.2541 0.9672 -0.9672 -0.2541 428.5931 152.6102)" class="st4" width="323.7" height="2"/>
			</g>
			<g id="XMLID_135_">
				<polygon id="XMLID_136_" class="st4" points="10.7,199.9 11.3,197.9 114.7,397.1 114,399.1 				"/>
			</g>
			<g id="XMLID_133_">
				
					<rect id="XMLID_134_" x="67.9" y="277.1" transform="matrix(-0.7401 0.6725 -0.6725 -0.7401 615.739 318.2623)" class="st4" width="356.8" height="2.1"/>
			</g>
		</g>
		<g id="XMLID_125_">
			<g id="XMLID_130_">
				<path id="XMLID_131_" class="st4" d="M885.9-160.6c5.4,7.7,16,9.6,23.7,4.2c7.7-5.4,9.6-16,4.2-23.7c-5.4-7.7-16-9.6-23.7-4.2
					C882.4-178.9,880.5-168.3,885.9-160.6z"/>
			</g>
			<g id="XMLID_126_">
				<path id="XMLID_127_" class="st4" d="M914.6-149.3c11.6-8.1,14.4-24.1,6.3-35.7c-8.1-11.6-24.1-14.4-35.7-6.3
					c-11.6,8.1-14.4,24.1-6.3,35.7C887-144,903-141.2,914.6-149.3z M888.3-186.7c9.1-6.3,21.5-4.2,27.9,4.9
					c6.3,9.1,4.2,21.5-4.9,27.9c-9.1,6.3-21.5,4.2-27.9-4.9C877.1-167.9,879.3-180.4,888.3-186.7z"/>
			</g>
		</g>
		<g id="XMLID_118_">
			<g id="XMLID_123_">
				<path id="XMLID_124_" class="st4" d="M1301.7-211.7c5.4,7.7,16,9.6,23.7,4.2c7.7-5.4,9.6-16,4.2-23.7c-5.4-7.7-16-9.6-23.7-4.2
					C1298.2-230,1296.3-219.4,1301.7-211.7z"/>
			</g>
			<g id="XMLID_119_">
				<path id="XMLID_120_" class="st4" d="M1330.4-200.5c11.6-8.1,14.4-24.1,6.3-35.7c-8.1-11.6-24.1-14.4-35.7-6.3
					c-11.6,8.1-14.4,24.1-6.3,35.7C1302.8-195.2,1318.8-192.3,1330.4-200.5z M1304.2-237.8c9.1-6.3,21.5-4.2,27.9,4.9
					c6.3,9.1,4.2,21.5-4.9,27.9c-9.1,6.3-21.5,4.2-27.9-4.9C1292.9-219,1295.1-231.5,1304.2-237.8z"/>
			</g>
		</g>
		<g id="XMLID_111_">
			<g id="XMLID_116_">
				<path id="XMLID_117_" class="st4" d="M607.2,290.5c4.1,5.9,12.3,7.3,18.2,3.2c5.9-4.1,7.3-12.3,3.2-18.2
					c-4.1-5.9-12.3-7.3-18.2-3.2C604.5,276.5,603,284.6,607.2,290.5z"/>
			</g>
			<g id="XMLID_112_">
				<path id="XMLID_113_" class="st4" d="M629.2,299.1c8.9-6.2,11.1-18.5,4.8-27.4c-6.2-8.9-18.5-11.1-27.4-4.8
					c-8.9,6.2-11.1,18.5-4.8,27.4C608,303.2,620.3,305.4,629.2,299.1z M609.1,270.4c6.9-4.9,16.5-3.2,21.4,3.8
					c4.9,7,3.2,16.5-3.8,21.4c-7,4.9-16.5,3.2-21.4-3.8C600.4,284.9,602.1,275.3,609.1,270.4z"/>
			</g>
		</g>
		<g id="XMLID_104_">
			<g id="XMLID_109_">
				<path id="XMLID_110_" class="st4" d="M401.3-58.5c4.1,5.9,12.3,7.3,18.2,3.2c5.9-4.1,7.3-12.3,3.2-18.2
					c-4.1-5.9-12.3-7.3-18.2-3.2C398.6-72.6,397.1-64.4,401.3-58.5z"/>
			</g>
			<g id="XMLID_105_">
				<path id="XMLID_106_" class="st4" d="M423.3-49.9c8.9-6.2,11.1-18.5,4.8-27.4c-6.2-8.9-18.5-11.1-27.4-4.8
					c-8.9,6.2-11.1,18.5-4.8,27.4C402.1-45.8,414.4-43.7,423.3-49.9z M403.2-78.6c7-4.9,16.5-3.2,21.4,3.8c4.9,7,3.2,16.5-3.8,21.4
					c-7,4.9-16.5,3.2-21.4-3.8C394.5-64.1,396.2-73.7,403.2-78.6z"/>
			</g>
		</g>
		<g id="XMLID_97_">
			<g id="XMLID_102_">
				<path id="XMLID_103_" class="st4" d="M1-9.7c4.1,5.9,12.3,7.3,18.2,3.2c5.9-4.1,7.3-12.3,3.2-18.2c-4.1-5.9-12.3-7.3-18.2-3.2
					C-1.8-23.8-3.2-15.7,1-9.7z"/>
			</g>
			<g id="XMLID_98_">
				<path id="XMLID_99_" class="st4" d="M23-1.1c8.9-6.2,11.1-18.5,4.8-27.4c-6.2-8.9-18.5-11.1-27.4-4.8C-8.5-27.1-10.7-14.9-4.4-6
					C1.8,2.9,14.1,5.1,23-1.1z M2.8-29.8c7-4.9,16.5-3.2,21.4,3.8c4.9,7,3.2,16.5-3.8,21.4C13.5,0.2,4-1.5-0.9-8.4
					C-5.8-15.4-4.1-25,2.8-29.8z"/>
			</g>
		</g>
		<g id="XMLID_90_">
			<g id="XMLID_95_">
				<path id="XMLID_96_" class="st4" d="M1338.7-67.3c4.1,5.9,12.3,7.3,18.2,3.2c5.9-4.1,7.3-12.3,3.2-18.2
					c-4.1-5.9-12.3-7.3-18.2-3.2C1336-81.4,1334.6-73.3,1338.7-67.3z"/>
			</g>
			<g id="XMLID_91_">
				<path id="XMLID_92_" class="st4" d="M1360.8-58.7c8.9-6.2,11.1-18.5,4.8-27.4c-6.2-8.9-18.5-11.1-27.4-4.8
					c-8.9,6.2-11.1,18.5-4.8,27.4C1339.6-54.6,1351.8-52.5,1360.8-58.7z M1340.6-87.4c7-4.9,16.5-3.2,21.4,3.8
					c4.9,7,3.2,16.5-3.8,21.4c-7,4.9-16.5,3.2-21.4-3.8C1332-73,1333.7-82.6,1340.6-87.4z"/>
			</g>
		</g>
		<g id="XMLID_83_">
			<g id="XMLID_88_">
				<path id="XMLID_89_" class="st4" d="M977.6,150.8c3.1,4.4,9.1,5.4,13.4,2.4c4.4-3.1,5.4-9.1,2.4-13.4c-3.1-4.4-9.1-5.4-13.4-2.4
					C975.6,140.4,974.5,146.4,977.6,150.8z"/>
			</g>
			<g id="XMLID_84_">
				<path id="XMLID_85_" class="st4" d="M993.8,157.1c6.6-4.6,8.1-13.6,3.5-20.2c-4.6-6.6-13.6-8.1-20.2-3.5
					c-6.6,4.6-8.1,13.6-3.5,20.2C978.2,160.1,987.2,161.7,993.8,157.1z M978.9,136c5.1-3.6,12.2-2.3,15.8,2.8
					c3.6,5.1,2.4,12.2-2.8,15.8c-5.1,3.6-12.2,2.4-15.8-2.8C972.6,146.6,973.8,139.6,978.9,136z"/>
			</g>
		</g>
		<g id="XMLID_76_">
			<g id="XMLID_81_">
				<path id="XMLID_82_" class="st4" d="M795.7-257.5c3.1,4.4,9.1,5.4,13.4,2.4c4.4-3.1,5.4-9.1,2.4-13.4c-3.1-4.4-9.1-5.4-13.4-2.4
					C793.7-267.8,792.6-261.8,795.7-257.5z"/>
			</g>
			<g id="XMLID_77_">
				<path id="XMLID_78_" class="st4" d="M811.9-251.1c6.6-4.6,8.1-13.6,3.5-20.2c-4.6-6.6-13.6-8.1-20.2-3.5
					c-6.6,4.6-8.1,13.6-3.5,20.2C796.3-248.1,805.3-246.5,811.9-251.1z M797-272.3c5.1-3.6,12.2-2.4,15.8,2.8
					c3.6,5.1,2.4,12.2-2.8,15.8c-5.1,3.6-12.2,2.3-15.8-2.8C790.7-261.6,791.9-268.7,797-272.3z"/>
			</g>
		</g>
		<g id="XMLID_69_">
			<g id="XMLID_74_">
				<path id="XMLID_75_" class="st4" d="M376-173.6c3.1,4.4,9.1,5.4,13.4,2.4c4.4-3.1,5.4-9.1,2.4-13.4c-3.1-4.4-9.1-5.4-13.4-2.4
					C374-183.9,373-177.9,376-173.6z"/>
			</g>
			<g id="XMLID_70_">
				<path id="XMLID_71_" class="st4" d="M392.2-167.2c6.6-4.6,8.1-13.6,3.5-20.2c-4.6-6.6-13.6-8.1-20.2-3.5
					c-6.6,4.6-8.1,13.6-3.5,20.2C376.6-164.2,385.7-162.6,392.2-167.2z M377.4-188.4c5.1-3.6,12.2-2.3,15.8,2.8
					c3.6,5.1,2.4,12.2-2.8,15.8c-5.1,3.6-12.2,2.3-15.8-2.8C371-177.7,372.3-184.8,377.4-188.4z"/>
			</g>
		</g>
		<g id="XMLID_62_">
			<g id="XMLID_67_">
				<path id="XMLID_68_" class="st4" d="M105.8,402.7c3.1,4.4,9.1,5.4,13.4,2.4c4.4-3.1,5.4-9.1,2.4-13.4c-3.1-4.4-9.1-5.4-13.4-2.4
					C103.8,392.3,102.7,398.3,105.8,402.7z"/>
			</g>
			<g id="XMLID_63_">
				<path id="XMLID_64_" class="st4" d="M122,409c6.6-4.6,8.1-13.6,3.5-20.2c-4.6-6.6-13.6-8.1-20.2-3.5c-6.6,4.6-8.1,13.6-3.5,20.2
					C106.4,412,115.4,413.6,122,409z M107.1,387.9c5.1-3.6,12.2-2.3,15.8,2.8c3.6,5.1,2.4,12.2-2.8,15.8c-5.1,3.6-12.2,2.4-15.8-2.8
					C100.8,398.5,102,391.5,107.1,387.9z"/>
			</g>
		</g>
		<g id="XMLID_58_">
			<g id="XMLID_59_">
				<path id="XMLID_60_" class="st4" d="M202.4,93.3c4.6-3.2,5.7-9.5,2.5-14c-3.2-4.6-9.5-5.7-14-2.5c-4.6,3.2-5.7,9.5-2.5,14
					C191.5,95.4,197.8,96.5,202.4,93.3z"/>
			</g>
		</g>
		<g id="XMLID_54_">
			<g id="XMLID_55_">
				<path id="XMLID_56_" class="st4" d="M1134.3-29.5c4.6-3.2,5.7-9.5,2.5-14c-3.2-4.6-9.5-5.7-14-2.5c-4.5,3.2-5.7,9.5-2.5,14
					C1123.5-27.4,1129.7-26.3,1134.3-29.5z"/>
			</g>
		</g>
		<g id="XMLID_50_">
			<g id="XMLID_51_">
				<path id="XMLID_52_" class="st4" d="M1623.8,309.8c4.6-3.2,5.7-9.5,2.5-14c-3.2-4.6-9.5-5.7-14-2.5c-4.6,3.2-5.7,9.5-2.5,14
					C1613,311.9,1619.3,313,1623.8,309.8z"/>
			</g>
		</g>
		<g id="XMLID_46_">
			<g id="XMLID_47_">
				<path id="XMLID_48_" class="st4" d="M714.2,163.6c4.6-3.2,5.7-9.5,2.5-14c-3.2-4.5-9.5-5.7-14-2.5c-4.6,3.2-5.7,9.5-2.5,14
					C703.4,165.7,709.7,166.8,714.2,163.6z"/>
			</g>
		</g>
		<g id="XMLID_42_">
			<g id="XMLID_43_">
				<path id="XMLID_44_" class="st4" d="M16.8,207.1c4.5-3.2,5.7-9.5,2.5-14c-3.2-4.6-9.5-5.7-14-2.5c-4.6,3.2-5.7,9.5-2.5,14
					C6,209.2,12.2,210.3,16.8,207.1z"/>
			</g>
		</g>
		<g id="XMLID_38_">
			<g id="XMLID_39_">
				<path id="XMLID_40_" class="st4" d="M657.8-130.8c4.6-3.2,5.7-9.5,2.5-14c-3.2-4.6-9.5-5.7-14-2.5c-4.6,3.2-5.7,9.5-2.5,14
					C647-128.8,653.3-127.7,657.8-130.8z"/>
			</g>
		</g>
		<g id="XMLID_31_">
			<g id="XMLID_36_">
				<path id="XMLID_37_" class="st4" d="M195.6-77c3.1,4.4,9.1,5.4,13.4,2.4c4.4-3.1,5.4-9.1,2.4-13.4c-3.1-4.4-9.1-5.4-13.4-2.4
					C193.6-87.3,192.5-81.3,195.6-77z"/>
			</g>
			<g id="XMLID_32_">
				<path id="XMLID_33_" class="st4" d="M211.8-70.6c6.6-4.6,8.1-13.6,3.5-20.2c-4.6-6.6-13.6-8.1-20.2-3.5
					c-6.6,4.6-8.1,13.6-3.5,20.2C196.2-67.6,205.2-66,211.8-70.6z M197-91.8c5.1-3.6,12.2-2.3,15.8,2.8c3.6,5.1,2.4,12.2-2.8,15.8
					c-5.1,3.6-12.2,2.3-15.8-2.8C190.6-81.1,191.8-88.2,197-91.8z"/>
			</g>
		</g>
		<g id="XMLID_24_">
			<g id="XMLID_29_">
				<path id="XMLID_30_" class="st4" d="M1435.6-135.3c4.1,5.9,12.3,7.3,18.2,3.2c5.9-4.1,7.3-12.3,3.2-18.2
					c-4.1-5.9-12.3-7.3-18.2-3.2C1432.9-149.4,1431.5-141.2,1435.6-135.3z"/>
			</g>
			<g id="XMLID_25_">
				<path id="XMLID_26_" class="st4" d="M1457.6-126.7c8.9-6.2,11.1-18.5,4.8-27.4c-6.2-8.9-18.5-11.1-27.4-4.8
					c-8.9,6.2-11.1,18.5-4.8,27.4C1436.5-122.6,1448.7-120.4,1457.6-126.7z M1437.5-155.4c7-4.9,16.5-3.2,21.4,3.8
					c4.9,7,3.2,16.5-3.8,21.4c-7,4.9-16.5,3.2-21.4-3.8C1428.9-140.9,1430.6-150.5,1437.5-155.4z"/>
			</g>
		</g>
		<g id="XMLID_17_">
			<g id="XMLID_22_">
				<path id="XMLID_23_" class="st4" d="M1413.1,165.7c4.1,5.9,12.3,7.3,18.2,3.2c5.9-4.1,7.3-12.3,3.2-18.2
					c-4.1-5.9-12.3-7.3-18.2-3.2C1410.4,151.6,1408.9,159.8,1413.1,165.7z"/>
			</g>
			<g id="XMLID_18_">
				<path id="XMLID_19_" class="st4" d="M1435.1,174.3c8.9-6.2,11.1-18.5,4.8-27.4c-6.2-8.9-18.5-11.1-27.4-4.8
					c-8.9,6.2-11.1,18.5-4.8,27.4C1413.9,178.4,1426.2,180.5,1435.1,174.3z M1415,145.6c7-4.9,16.5-3.2,21.4,3.8
					c4.9,7,3.2,16.5-3.8,21.4c-7,4.9-16.5,3.2-21.4-3.8C1406.3,160,1408,150.5,1415,145.6z"/>
			</g>
		</g>
		<g id="XMLID_10_">
			<g id="XMLID_15_">
				<path id="XMLID_16_" class="st4" d="M366.3,172.5c4.1,5.9,12.3,7.3,18.2,3.2c5.9-4.1,7.3-12.3,3.2-18.2
					c-4.1-5.9-12.3-7.3-18.2-3.2C363.6,158.4,362.2,166.6,366.3,172.5z"/>
			</g>
			<g id="XMLID_11_">
				<path id="XMLID_12_" class="st4" d="M388.3,181.1c8.9-6.2,11.1-18.5,4.8-27.4c-6.2-8.9-18.5-11.1-27.4-4.8
					c-8.9,6.2-11.1,18.5-4.8,27.4C367.1,185.2,379.4,187.3,388.3,181.1z M368.2,152.4c7-4.9,16.5-3.2,21.4,3.8
					c4.9,7,3.2,16.5-3.8,21.4c-7,4.9-16.5,3.2-21.4-3.8C359.5,166.9,361.2,157.3,368.2,152.4z"/>
			</g>
		</g>
		<g id="XMLID_3_">
			<g id="XMLID_8_">
				<path id="XMLID_9_" class="st4" d="M1271.2,294.9c4.1,5.9,12.3,7.3,18.2,3.2c5.9-4.1,7.3-12.3,3.2-18.2
					c-4.1-5.9-12.3-7.3-18.2-3.2C1268.4,280.8,1267,289,1271.2,294.9z"/>
			</g>
			<g id="XMLID_4_">
				<path id="XMLID_5_" class="st4" d="M1293.2,303.5c8.9-6.2,11.1-18.5,4.8-27.4c-6.2-8.9-18.5-11.1-27.4-4.8
					c-8.9,6.2-11.1,18.5-4.8,27.4C1272,307.6,1284.3,309.7,1293.2,303.5z M1273,274.8c7-4.9,16.5-3.2,21.4,3.8
					c4.9,7,3.2,16.5-3.8,21.4c-7,4.9-16.5,3.2-21.4-3.8C1264.4,289.3,1266.1,279.7,1273,274.8z"/>
			</g>
		</g>
	</g>
</g>
</svg>
